# xmcd
#
# Track frame offsets:
#	150
#	10271
#	22804
#	31266
#	45141
#	53453
#	65480
#	77904
#	90444
#	101407
#	120049
#	133668
#	146258
#	158830
#	170468
#	188926
#	203382
#	215897
#	228903
#	243762
#
# Disc length: 3475 seconds
#
# Revision: 1
# Processed by: cddbd v1.5.2PL0 Copyright (c) Steve Scherf et al.
# Submitted via: audiograbber 1.83.01
#
DISCID=e90d9114
DTITLE=Johnny Cash - The Greatest Country Music Recordings Of All Time  (Record
DTITLE=9 and 10)
DYEAR=1900
DGENRE=
TTITLE0=Johnny Cash - Hey, Porter
TTITLE1=Johnny Cash - I Walk THe Line
TTITLE2=Johnny Cash - Guess Things Happen That Way
TTITLE3=Johnny Cash - Don't Take Your Guns To Town
TTITLE4=Johnny Cash - Five Feet High And Rising
TTITLE5=Johnny Cash - Ring Of Fire
TTITLE6=Johnny Cash - Understand Your Man
TTITLE7=Johnny Cash - Folsom Prison Blues
TTITLE8=Johnny Cash with Jan Howard and the Statler Brothers - Daddy Sang Bass
TTITLE9=Johnny Cash - Sonday Morning Coming Down
TTITLE10=Johnny Cash with June Carter Cash - If I Were A Carpenter
TTITLE11=Johnny Cash with June Carter Cash - Jackson
TTITLE12=Johnny Cash - Any Old Wind That Blows
TTITLE13=Johnny Cash - A Thing Called Love
TTITLE14=Johnny Cash - One Piece At A Time
TTITLE15=Johnny Cash - Texas - 1947
TTITLE16=Johnny Cash - Lady Came From Baltimore
TTITLE17=Johnny Cash - I Will Rock And Roll With You
TTITLE18=Johnny Cash with Waylon Jennings - There Ain't No Good Chain Gang
TTITLE19=Johnny Cash - (Ghost) Riders In The Sky
EXTD=
EXTT0=
EXTT1=
EXTT2=
EXTT3=
EXTT4=
EXTT5=
EXTT6=
EXTT7=
EXTT8=
EXTT9=
EXTT10=
EXTT11=
EXTT12=
EXTT13=
EXTT14=
EXTT15=
EXTT16=
EXTT17=
EXTT18=
EXTT19=
PLAYORDER=
